<?xml version="1.0" encoding="utf-8"?>
<!-- Generator: Adobe Illustrator 21.0.2, SVG Export Plug-In . SVG Version: 6.00 Build 0)  -->
<svg version="1.1" id="Layer_1" xmlns="http://www.w3.org/2000/svg" xmlns:xlink="http://www.w3.org/1999/xlink" x="0px" y="0px"
	 viewBox="0 0 100.2 55.1" style="enable-background:new 0 0 100.2 55.1;" xml:space="preserve">
<g>
	<path d="M64.8,41.9h-30c-5,0-9-4-9-9s4-9,9-9c0.2,0,0.3,0,0.5,0c1.5-6.7,7.5-11.6,14.5-11.6s13,4.9,14.5,11.7c0.2,0,0.4,0,0.5,0
		c5,0,9,4,9,9S69.8,41.9,64.8,41.9z M34.8,26c-3.8,0-6.9,3.1-6.9,6.9s3.1,6.9,6.9,6.9h30c3.8,0,6.9-3.1,6.9-6.9S68.6,26,64.8,26
		c-0.4,0-0.8,0-1.2,0.1c-0.3,0-0.6,0-0.8-0.2s-0.4-0.4-0.4-0.7c-0.9-6.2-6.3-10.9-12.6-10.9S38.1,19,37.2,25.2
		c0,0.3-0.2,0.5-0.4,0.7c-0.2,0.2-0.5,0.2-0.8,0.2C35.5,26,35.2,26,34.8,26z"/>
</g>
</svg>
