<?xml version="1.0" encoding="utf-8"?>
<!-- Generator: Adobe Illustrator 21.0.2, SVG Export Plug-In . SVG Version: 6.00 Build 0)  -->
<svg version="1.1" id="Layer_1" xmlns="http://www.w3.org/2000/svg" xmlns:xlink="http://www.w3.org/1999/xlink" x="0px" y="0px"
	 viewBox="0 0 100 55.5" style="enable-background:new 0 0 100 55.5;" xml:space="preserve">
<style type="text/css">
	.st0{enable-background:new    ;}
</style>
<g>
	<path d="M52.5,44.3c-6.9,0-13.2-4-16.1-10.3c-2-4.3-2.2-9.1-0.6-13.6c1.6-4.5,4.9-8,9.2-10c1.8-0.9,3.8-1.4,5.8-1.6
		c0.4,0,0.9,0.2,1,0.6c0.2,0.4,0.1,0.9-0.2,1.2c-4.7,4.7-6,11.8-3.2,17.8c2.6,5.5,8.2,9.1,14.2,9.1c0.5,0,1,0,1.5-0.1
		c0.4,0,0.9,0.2,1,0.6c0.2,0.4,0.1,0.9-0.2,1.2c-1.4,1.4-3.1,2.6-4.9,3.4C57.6,43.7,55.1,44.3,52.5,44.3z M48.2,11.4
		c-0.8,0.2-1.6,0.5-2.3,0.9c-3.8,1.8-6.7,4.9-8.1,8.9c-1.4,3.9-1.2,8.2,0.5,12c2.6,5.5,8.2,9.1,14.2,9.1c2.3,0,4.5-0.5,6.6-1.5
		c0.8-0.3,1.5-0.8,2.1-1.2c-6.4-0.5-12.1-4.4-14.8-10.2C43.8,23.4,44.5,16.5,48.2,11.4z"/>
</g>
<text transform="matrix(1 0 0 1 0 91.457)" style="font-family:'HelveticaNeue-Bold'; font-size:5px;">Created by Max Randall</text>
<text transform="matrix(1 0 0 1 0 96.457)" style="font-family:'HelveticaNeue-Bold'; font-size:5px;">from the Noun Project</text>
</svg>
