<?xml version="1.0" encoding="utf-8"?>
<!-- Generator: Adobe Illustrator 21.0.2, SVG Export Plug-In . SVG Version: 6.00 Build 0)  -->
<svg version="1.1" id="Layer_1" xmlns="http://www.w3.org/2000/svg" xmlns:xlink="http://www.w3.org/1999/xlink" x="0px" y="0px"
	 viewBox="0 0 89 55.7" style="enable-background:new 0 0 89 55.7;" xml:space="preserve">
<style type="text/css">
	.st0{enable-background:new    ;}
</style>
<g>
	<path d="M36,53.6c-0.1,0-0.3,0-0.4-0.1c-0.5-0.2-0.8-0.8-0.6-1.4l1.5-3.7c0.2-0.5,0.8-0.8,1.4-0.6c0.5,0.2,0.8,0.8,0.6,1.4L37,52.9
		C36.8,53.3,36.4,53.6,36,53.6z"/>
</g>
<g>
	<path d="M39.3,45.6c-0.1,0-0.3,0-0.4-0.1c-0.5-0.2-0.8-0.8-0.6-1.4l4-9.7c0.2-0.5,0.8-0.8,1.4-0.6c0.5,0.2,0.8,0.8,0.6,1.4l-4,9.7
		C40.1,45.3,39.7,45.6,39.3,45.6z"/>
</g>
<g>
	<path d="M50.2,51.6c-0.1,0-0.3,0-0.4-0.1c-0.5-0.2-0.8-0.8-0.6-1.4l2.3-5.5c0.2-0.5,0.8-0.8,1.4-0.6c0.5,0.2,0.8,0.8,0.6,1.4
		l-2.3,5.5C51,51.4,50.6,51.6,50.2,51.6z"/>
</g>
<g>
	<path d="M54.2,42.1c-0.1,0-0.3,0-0.4-0.1c-0.5-0.2-0.8-0.8-0.6-1.4l2.6-6.2c0.2-0.5,0.8-0.8,1.4-0.6c0.5,0.2,0.8,0.8,0.6,1.4
		l-2.6,6.2C55,41.8,54.6,42.1,54.2,42.1z"/>
</g>
<g>
	<path d="M24.9,48c-0.1,0-0.3,0-0.4-0.1c-0.5-0.2-0.8-0.8-0.6-1.4l2.4-5.8c0.2-0.5,0.8-0.8,1.4-0.6c0.5,0.2,0.8,0.8,0.6,1.4
		l-2.4,5.8C25.7,47.8,25.3,48,24.9,48z"/>
</g>
<g>
	<path d="M29.1,37.8c-0.1,0-0.3,0-0.4-0.1c-0.5-0.2-0.8-0.8-0.6-1.4l0.8-1.9c0.2-0.5,0.8-0.8,1.4-0.6c0.5,0.2,0.8,0.8,0.6,1.4
		l-0.8,1.9C29.9,37.5,29.5,37.8,29.1,37.8z"/>
</g>
<g>
	<path d="M59,31.1H29c-5,0-9-4-9-9s4-9,9-9c0.2,0,0.3,0,0.5,0C31,6.4,37,1.4,44,1.4s13,4.9,14.5,11.7c0.2,0,0.4,0,0.5,0c5,0,9,4,9,9
		S64,31.1,59,31.1z M29,15.2c-3.8,0-6.9,3.1-6.9,6.9S25.2,29,29,29h30c3.8,0,6.9-3.1,6.9-6.9s-3.1-6.9-6.9-6.9c-0.4,0-0.8,0-1.2,0.1
		c-0.3,0-0.6,0-0.8-0.2s-0.4-0.4-0.4-0.7C55.7,8.2,50.3,3.5,44,3.5S32.3,8.2,31.4,14.4c0,0.3-0.2,0.5-0.4,0.7s-0.5,0.2-0.8,0.2
		C29.7,15.2,29.4,15.2,29,15.2z"/>
</g>
<text transform="matrix(1 0 0 1 -6 92.4839)" style="font-family:'HelveticaNeue-Bold'; font-size:5px;">Created by Max Randall</text>
<text transform="matrix(1 0 0 1 -6 97.4839)" style="font-family:'HelveticaNeue-Bold'; font-size:5px;">from the Noun Project</text>
</svg>
