<?xml version="1.0" encoding="utf-8"?>
<!-- Generator: Adobe Illustrator 21.0.2, SVG Export Plug-In . SVG Version: 6.00 Build 0)  -->
<svg version="1.1" id="Layer_1" xmlns="http://www.w3.org/2000/svg" xmlns:xlink="http://www.w3.org/1999/xlink" x="0px" y="0px"
	 viewBox="0 0 100 55.5" style="enable-background:new 0 0 100 55.5;" xml:space="preserve">
<style type="text/css">
	.st0{enable-background:new    ;}
</style>
<path d="M67.1,40.8h-3.8l2.7-2.7c0.4-0.4,0.4-1.1,0-1.5s-1.1-0.4-1.5,0l-2.7,2.7v-3.8c0-0.6-0.5-1-1-1s-1,0.5-1,1v3.8l-2.7-2.7
	c-0.4-0.4-1.1-0.4-1.5,0s-0.4,1.1,0,1.5l2.7,2.7h-3.8c-0.6,0-1,0.5-1,1s0.5,1,1,1h3.8l-2.7,2.7c-0.4,0.4-0.4,1.1,0,1.5
	c0.2,0.2,0.5,0.3,0.7,0.3s0.5-0.1,0.7-0.3l2.7-2.7v3.8c0,0.6,0.5,1,1,1s1-0.5,1-1v-3.8l2.7,2.7c0.2,0.2,0.5,0.3,0.7,0.3
	s0.5-0.1,0.7-0.3c0.4-0.4,0.4-1.1,0-1.5l-2.4-2.6h3.8c0.6,0,1-0.5,1-1S67.7,40.8,67.1,40.8z"/>
<path d="M47,45h-3.8l2.7-2.7c0.4-0.4,0.4-1.1,0-1.5s-1.1-0.4-1.5,0l-2.7,2.7v-3.8c0-0.6-0.5-1-1-1s-1,0.5-1,1v3.8L37,40.9
	c-0.4-0.4-1.1-0.4-1.5,0s-0.4,1.1,0,1.5l2.7,2.7h-3.8c-0.6,0-1,0.5-1,1s0.5,1,1,1h3.8l-2.7,2.7c-0.4,0.4-0.4,1.1,0,1.5
	c0.2,0.2,0.5,0.3,0.7,0.3s0.5-0.1,0.7-0.3l2.7-2.7v3.8c0,0.6,0.5,1,1,1s1-0.5,1-1v-3.8l2.7,2.7c0.2,0.2,0.5,0.3,0.7,0.3
	s0.5-0.1,0.7-0.3c0.4-0.4,0.4-1.1,0-1.5L43,47.1h4c0.6,0,1-0.5,1-1S47.6,45,47,45z"/>
<g>
	<path d="M65,32.1H35c-5,0-9-4-9-9s4-9,9-9c0.2,0,0.3,0,0.5,0C37,7.4,43,2.4,50,2.4s13,4.9,14.5,11.7c0.2,0,0.4,0,0.5,0c5,0,9,4,9,9
		S70,32.1,65,32.1z M35,16.2c-3.8,0-6.9,3.1-6.9,6.9S31.2,30,35,30h30c3.8,0,6.9-3.1,6.9-6.9s-3.1-6.9-6.9-6.9c-0.4,0-0.8,0-1.2,0.1
		c-0.3,0-0.6,0-0.8-0.2s-0.4-0.4-0.4-0.7C61.7,9.2,56.3,4.5,50,4.5S38.3,9.2,37.4,15.4c0,0.3-0.2,0.5-0.4,0.7s-0.5,0.2-0.8,0.2
		C35.7,16.2,35.4,16.2,35,16.2z"/>
</g>
<text transform="matrix(1 0 0 1 0 92.9105)" style="font-family:'HelveticaNeue-Bold'; font-size:5px;">Created by Max Randall</text>
<text transform="matrix(1 0 0 1 0 97.9105)" style="font-family:'HelveticaNeue-Bold'; font-size:5px;">from the Noun Project</text>
</svg>
