<?xml version="1.0" encoding="utf-8"?>
<!-- Generator: Adobe Illustrator 21.0.2, SVG Export Plug-In . SVG Version: 6.00 Build 0)  -->
<svg version="1.1" id="Layer_1" xmlns="http://www.w3.org/2000/svg" xmlns:xlink="http://www.w3.org/1999/xlink" x="0px" y="0px"
	 viewBox="0 0 100 60.3" style="enable-background:new 0 0 100 60.3;" xml:space="preserve">
<style type="text/css">
	.st0{enable-background:new    ;}
</style>
<g>
	<path d="M61.1,52.5c-0.1,0-0.3,0-0.4-0.1c-0.5-0.2-0.8-0.8-0.6-1.4l2.3-5.5c0.2-0.5,0.8-0.8,1.4-0.6c0.5,0.2,0.8,0.8,0.6,1.4
		L62,51.8C61.9,52.2,61.5,52.5,61.1,52.5z"/>
</g>
<g>
	<path d="M65,42.9c-0.1,0-0.3,0-0.4-0.1c-0.5-0.2-0.8-0.8-0.6-1.4l2.6-6.2c0.2-0.5,0.8-0.8,1.4-0.6c0.5,0.2,0.8,0.8,0.6,1.4L66,42.3
		C65.8,42.7,65.4,42.9,65,42.9z"/>
</g>
<g>
	<path d="M30.2,49.5c-0.1,0-0.3,0-0.4-0.1c-0.5-0.2-0.8-0.8-0.6-1.4l2.4-5.8c0.2-0.5,0.8-0.8,1.4-0.6c0.5,0.2,0.8,0.8,0.6,1.4
		l-2.4,5.8C31,49.3,30.6,49.5,30.2,49.5z"/>
</g>
<g>
	<path d="M34.4,39.3c-0.1,0-0.3,0-0.4-0.1c-0.5-0.2-0.8-0.8-0.6-1.4l0.8-1.9c0.2-0.5,0.8-0.8,1.4-0.6c0.5,0.2,0.8,0.8,0.6,1.4
		l-0.8,1.9C35.2,39.1,34.9,39.3,34.4,39.3z"/>
</g>
<g>
	<path d="M65,31.8H35c-5,0-9-4-9-9s4-9,9-9c0.2,0,0.3,0,0.5,0C37,7,43,2.1,50,2.1S63,7,64.5,13.8c0.2,0,0.4,0,0.5,0c5,0,9,4,9,9
		S70,31.8,65,31.8z M35,15.8c-3.8,0-6.9,3.1-6.9,6.9s3.1,6.9,6.9,6.9h30c3.8,0,6.9-3.1,6.9-6.9s-3.1-6.9-6.9-6.9
		c-0.4,0-0.8,0-1.2,0.1c-0.3,0-0.6,0-0.8-0.2s-0.4-0.4-0.4-0.7C61.7,8.8,56.3,4.1,50,4.1S38.3,8.8,37.4,15c0,0.3-0.2,0.5-0.4,0.7
		s-0.5,0.2-0.8,0.2C35.7,15.9,35.4,15.8,35,15.8z"/>
</g>
<g>
	<path d="M46.4,59.1c-0.1,0-0.3,0-0.4-0.1c-0.4-0.2-0.7-0.6-0.6-1.1l1.4-12.5l-4.8-2c-0.3-0.1-0.6-0.4-0.6-0.8l-1.2-7.7
		c-0.1-0.6,0.3-1.1,0.9-1.2c0.6-0.1,1.1,0.3,1.2,0.9l1.1,7.1l5,2.1c0.4,0.2,0.7,0.6,0.6,1.1l-1.1,9.5l8.3-11L51.5,39
		c-0.3-0.3-0.4-0.7-0.3-1l0.9-3.5c0.1-0.6,0.7-0.9,1.3-0.7c0.6,0.1,0.9,0.7,0.7,1.3L53.3,38l4.9,4.7c0.4,0.4,0.4,1,0.1,1.4
		L47.2,58.7C47,59,46.7,59.1,46.4,59.1z"/>
</g>
<text transform="matrix(1 0 0 1 0 96.0228)" style="font-family:'HelveticaNeue-Bold'; font-size:5px;">Created by Max Randall</text>
<text transform="matrix(1 0 0 1 0 101.0228)" style="font-family:'HelveticaNeue-Bold'; font-size:5px;">from the Noun Project</text>
</svg>
