<?xml version="1.0" encoding="utf-8"?>
<!-- Generator: Adobe Illustrator 21.0.2, SVG Export Plug-In . SVG Version: 6.00 Build 0)  -->
<svg version="1.1" id="Layer_1" xmlns="http://www.w3.org/2000/svg" xmlns:xlink="http://www.w3.org/1999/xlink" x="0px" y="0px"
	 viewBox="0 0 100 55.8" style="enable-background:new 0 0 100 55.8;" xml:space="preserve">
<style type="text/css">
	.st0{enable-background:new    ;}
</style>
<g>
	<path d="M50,41.7c-1.8,0-3.6-0.4-5.3-1.2c-6.5-2.9-9.4-10.6-6.4-17.1c2.1-4.6,6.7-7.6,11.8-7.6c1.8,0,3.6,0.4,5.3,1.2
		c6.5,2.9,9.4,10.6,6.4,17.1C59.7,38.7,55.1,41.7,50,41.7z M50,18c-4.2,0-8.1,2.5-9.9,6.4c-2.5,5.4,0,11.9,5.4,14.3
		c1.4,0.6,2.9,1,4.5,1c4.2,0,8.1-2.5,9.9-6.4c2.5-5.4,0-11.9-5.4-14.3C53,18.3,51.5,18,50,18z"/>
</g>
<g>
	<path d="M72.3,39.9c-0.1,0-0.3,0-0.4-0.1L66,37.1c-0.5-0.2-0.8-0.9-0.5-1.4c0.2-0.5,0.9-0.8,1.4-0.5l5.9,2.7
		c0.5,0.2,0.8,0.9,0.5,1.4C73,39.7,72.7,39.9,72.3,39.9z"/>
</g>
<g>
	<path d="M33.6,22.4c-0.1,0-0.3,0-0.4-0.1l-5.9-2.7c-0.5-0.2-0.8-0.9-0.5-1.4c0.2-0.5,0.9-0.8,1.4-0.5l5.9,2.7
		c0.5,0.2,0.8,0.9,0.5,1.4C34.4,22.2,34,22.4,33.6,22.4z"/>
</g>
<g>
	<path d="M57.4,13.5c-0.1,0-0.3,0-0.4-0.1c-0.5-0.2-0.8-0.9-0.5-1.4l2.7-5.9c0.2-0.5,0.9-0.8,1.4-0.5c0.5,0.2,0.8,0.9,0.5,1.4
		l-2.7,5.9C58.2,13.2,57.8,13.5,57.4,13.5z"/>
</g>
<g>
	<path d="M39.9,52.1c-0.1,0-0.3,0-0.4-0.1c-0.5-0.2-0.8-0.9-0.5-1.4l2.7-5.9c0.2-0.5,0.9-0.8,1.4-0.5c0.5,0.2,0.8,0.9,0.5,1.4
		l-2.7,5.9C40.7,51.9,40.3,52.1,39.9,52.1z"/>
</g>
<g>
	<path d="M66.8,23.5c-0.4,0-0.8-0.3-1-0.7c-0.2-0.5,0.1-1.1,0.6-1.3l6-2.3c0.5-0.2,1.1,0.1,1.3,0.6c0.2,0.5-0.1,1.1-0.6,1.3l-6,2.3
		C67.1,23.5,66.9,23.5,66.8,23.5z"/>
</g>
<g>
	<path d="M27.1,38.5c-0.4,0-0.8-0.3-1-0.7c-0.2-0.5,0.1-1.1,0.6-1.3l6-2.3c0.5-0.2,1.1,0.1,1.3,0.6s-0.1,1.1-0.6,1.3l-6,2.3
		C27.4,38.4,27.3,38.5,27.1,38.5z"/>
</g>
<g>
	<path d="M43.7,13c-0.4,0-0.8-0.3-1-0.7l-2.3-6C40.2,5.8,40.5,5.2,41,5c0.5-0.2,1.1,0.1,1.3,0.6l2.3,6c0.2,0.5-0.1,1.1-0.6,1.3
		C43.9,13,43.8,13,43.7,13z"/>
</g>
<g>
	<path d="M58.6,52.7c-0.4,0-0.8-0.3-1-0.7l-2.3-6c-0.2-0.5,0.1-1.1,0.6-1.3s1.1,0.1,1.3,0.6l2.3,6c0.2,0.5-0.1,1.1-0.6,1.3
		C58.9,52.7,58.7,52.7,58.6,52.7z"/>
</g>
<text transform="matrix(1 0 0 1 0 93.7795)" style="font-family:'HelveticaNeue-Bold'; font-size:5px;">Created by Max Randall</text>
<text transform="matrix(1 0 0 1 0 98.7795)" style="font-family:'HelveticaNeue-Bold'; font-size:5px;">from the Noun Project</text>
</svg>
