<?xml version="1.0" encoding="utf-8"?>
<!-- Generator: Adobe Illustrator 21.0.2, SVG Export Plug-In . SVG Version: 6.00 Build 0)  -->
<svg version="1.1" id="Layer_1" xmlns="http://www.w3.org/2000/svg" xmlns:xlink="http://www.w3.org/1999/xlink" x="0px" y="0px"
	 viewBox="0 0 100 55.9" style="enable-background:new 0 0 100 55.9;" xml:space="preserve">
<style type="text/css">
	.st0{enable-background:new    ;}
</style>
<g>
	<path d="M57.1,21.9H32.6c-0.6,0-1-0.5-1-1s0.5-1,1-1h24.5c8,0,12.3-1.5,12.3-4.3c0-0.6,0.5-1,1-1s1,0.5,1,1
		C71.5,19.8,66.6,21.9,57.1,21.9z"/>
</g>
<g>
	<path d="M77.9,34.9c-0.6,0-1-0.5-1-1c0-1.7-2.5-4.7-11.8-4.7H22.9c-0.6,0-1-0.5-1-1s0.5-1,1-1h42.2C78.3,27.2,79,32.8,79,34
		C79,34.5,78.5,34.9,77.9,34.9z"/>
</g>
<g>
	<path d="M59.9,40.9c-0.6,0-1-0.5-1-1c0-1.5-2.8-3.3-10.5-3.3H26.9c-0.6,0-1-0.5-1-1s0.5-1,1-1h21.4c11,0,12.6,3.4,12.6,5.4
		C60.9,40.5,60.4,40.9,59.9,40.9z"/>
</g>
<text transform="matrix(1 0 0 1 0 92.7362)" style="font-family:'HelveticaNeue-Bold'; font-size:5px;">Created by Max Randall</text>
<text transform="matrix(1 0 0 1 0 97.7362)" style="font-family:'HelveticaNeue-Bold'; font-size:5px;">from the Noun Project</text>
</svg>
